<svg width="297" height="288" viewBox="0 0 297 288" fill="none" xmlns="http://www.w3.org/2000/svg">
<path d="M0 70.7007C0 69.6034 0.884009 68.7111 1.98119 68.7008L233.947 66.5193C235.072 66.5087 235.985 67.4276 235.966 68.5524L232.362 285.533C232.344 286.625 231.454 287.5 230.362 287.5H1.99999C0.895425 287.5 0 286.605 0 285.5V70.7007Z" fill="#0DFF91"/>
<path d="M130.58 61.918L171.205 2.43174C171.39 2.16128 171.695 1.99841 172.023 1.99573L291.642 1.01925C292.525 1.01204 292.983 2.06878 292.375 2.70843L235.792 62.1933C235.605 62.3893 235.347 62.5014 235.077 62.504L131.416 63.4819C130.608 63.4896 130.125 62.5853 130.58 61.918Z" fill="#00CD73" stroke="#00CD73"/>
<path d="M2.90659 62.8364L53.2039 3.35018C53.3919 3.12786 53.6674 2.9985 53.9586 2.99589L163.085 2.01717C163.893 2.00993 164.376 2.91397 163.92 3.58109L123.295 63.0683C123.11 63.3387 122.805 63.5016 122.477 63.5043L3.67844 64.4821C2.82341 64.4891 2.35451 63.4894 2.90659 62.8364Z" fill="#00CD73" stroke="#00CD73"/>
<path d="M296.251 221.158L239.794 285.457C239.18 286.156 238.028 285.711 238.043 284.781L241.494 65.8845C241.498 65.637 241.593 65.3997 241.762 65.2186L294.274 8.85242C294.892 8.18884 296.004 8.62481 296.006 9.53173L296.499 220.496C296.5 220.74 296.411 220.975 296.251 221.158Z" fill="#00CD73" stroke="#00CD73"/>
</svg>
