<svg width="300" height="328" viewBox="0 0 300 328" fill="none" xmlns="http://www.w3.org/2000/svg">
<path d="M0 83.9789C0 82.8826 0.882586 81.9907 1.97884 81.9791L233.107 79.5334C234.231 79.5215 235.144 80.4385 235.128 81.5628L231.529 325.316C231.513 326.409 230.622 327.286 229.529 327.286H2.00001C0.895437 327.286 0 326.391 0 325.286V83.9789Z" fill="#0DFF91"/>
<path d="M129.084 73.9315L170.202 14.4315C170.389 14.1613 170.696 14 171.024 14H291.169C292.048 14 292.499 15.0524 291.893 15.6892L235.296 75.1892C235.107 75.3877 234.845 75.5 234.571 75.5H129.907C129.1 75.5 128.626 74.5948 129.084 73.9315Z" fill="#00CD73" stroke="#00CD73"/>
<path d="M2.70062 75.4887L52.7578 16.2865C52.9139 16.1018 53.1318 15.9799 53.3709 15.9435L149.18 1.35329C150.051 1.22063 150.656 2.19784 150.148 2.91806L108.748 61.6479C108.59 61.8726 108.346 62.0222 108.074 62.0615L3.60696 77.1241C2.69639 77.2554 2.10663 76.1912 2.70062 75.4887Z" fill="#00CD73" stroke="#00CD73"/>
<path d="M299.244 255.438L236.293 325.504C235.674 326.193 234.532 325.743 234.549 324.818L239.07 79.0514C239.075 78.8057 239.17 78.5702 239.337 78.3899L297.767 15.3695C298.385 14.7027 299.5 15.1402 299.5 16.0494V254.77C299.5 255.017 299.409 255.255 299.244 255.438Z" fill="#00CD73" stroke="#00CD73"/>
</svg>
