<svg width="450" height="69" viewBox="0 0 450 69" fill="none" xmlns="http://www.w3.org/2000/svg">
<mask id="mask0_265_118" style="mask-type:alpha" maskUnits="userSpaceOnUse" x="0" y="2" width="61" height="67">
<path d="M57.0001 35V17.1444L32.5385 6L4.00008 17.1444V32.2222L57.0001 40.0889V55.1667L32.5385 65L4.00008 55.1667C4.00008 55.1667 4 39 4.00008 38" stroke="black" stroke-width="7"/>
</mask>
<g mask="url(#mask0_265_118)">
<rect x="-4.03027" y="0.100098" width="70.6667" height="70.8" rx="5" fill="#00CD73"/>
</g>
<path d="M93.128 25.232C96.2 25.232 99.144 25.7653 101.96 26.832L100.744 34L99.592 34.32C98.2267 33.296 96.904 32.528 95.624 32.016C94.344 31.504 93.1707 31.248 92.104 31.248C90.9093 31.248 89.9707 31.5467 89.288 32.144C88.6053 32.6987 88.264 33.3813 88.264 34.192C88.264 35.088 88.6907 35.8347 89.544 36.432C90.3973 36.9867 91.7413 37.648 93.576 38.416C95.496 39.2267 97.0533 39.9733 98.248 40.656C99.4853 41.3387 100.531 42.2987 101.384 43.536C102.28 44.7307 102.728 46.2453 102.728 48.08C102.728 49.9147 102.237 51.6427 101.256 53.264C100.317 54.8427 98.8667 56.1227 96.904 57.104C94.984 58.0853 92.5947 58.576 89.736 58.576C88.2 58.576 86.5147 58.4053 84.68 58.064C82.888 57.7653 81.1387 57.2747 79.432 56.592L80.52 49.04L81.352 48.464C82.76 49.744 84.3387 50.768 86.088 51.536C87.8373 52.304 89.3947 52.688 90.76 52.688C91.9547 52.688 92.9147 52.3893 93.64 51.792C94.408 51.1947 94.792 50.448 94.792 49.552C94.792 48.6133 94.344 47.8667 93.448 47.312C92.5947 46.7147 91.2507 46.0533 89.416 45.328C87.496 44.5173 85.9173 43.7707 84.68 43.088C83.4853 42.3627 82.44 41.3813 81.544 40.144C80.6907 38.9067 80.264 37.3707 80.264 35.536C80.264 33.616 80.776 31.8667 81.8 30.288C82.8667 28.7093 84.36 27.472 86.28 26.576C88.2427 25.68 90.5253 25.232 93.128 25.232ZM142.259 26.32L141.811 32.464L135.283 32.016H133.427L133.235 47.632L133.491 58H125.491L125.811 48.4L125.683 32.016H123.827L117.171 32.464L116.659 31.824L117.107 25.68H141.811L142.259 26.32ZM171.997 25.168C176.861 25.168 180.616 26.5547 183.261 29.328C185.907 32.1013 187.229 36.0267 187.229 41.104C187.229 46.6507 185.779 50.96 182.877 54.032C180.019 57.0613 175.965 58.576 170.717 58.576C165.896 58.576 162.163 57.168 159.517 54.352C156.872 51.4933 155.549 47.4827 155.549 42.32C155.549 36.8587 156.979 32.6347 159.837 29.648C162.696 26.6613 166.749 25.168 171.997 25.168ZM171.293 31.696C168.648 31.696 166.749 32.4213 165.597 33.872C164.488 35.28 163.933 37.7333 163.933 41.232C163.933 44.048 164.168 46.2667 164.637 47.888C165.149 49.4667 165.939 50.5973 167.005 51.28C168.115 51.9627 169.587 52.304 171.421 52.304C174.109 52.304 176.008 51.6 177.117 50.192C178.269 48.784 178.845 46.3093 178.845 42.768C178.845 39.952 178.589 37.7547 178.077 36.176C177.565 34.5547 176.776 33.4027 175.709 32.72C174.643 32.0373 173.171 31.696 171.293 31.696ZM217.753 25.232C220.953 25.232 223.94 25.7867 226.713 26.896L225.305 33.68L224.665 34C223.684 33.3173 222.532 32.784 221.209 32.4C219.887 32.016 218.564 31.824 217.241 31.824C214.639 31.824 212.697 32.592 211.417 34.128C210.137 35.6213 209.497 37.9893 209.497 41.232C209.497 48.272 212.207 51.792 217.625 51.792C218.905 51.792 220.228 51.6213 221.593 51.28C222.959 50.9387 224.196 50.4693 225.305 49.872L226.009 50.256L225.369 56.976C222.852 58 220.1 58.512 217.113 58.512C211.865 58.512 207.876 57.104 205.145 54.288C202.415 51.472 201.049 47.4187 201.049 42.128C201.049 36.752 202.5 32.592 205.401 29.648C208.303 26.704 212.42 25.232 217.753 25.232ZM258.167 40.912C262.05 46.1173 266.274 51.2373 270.839 56.272L270.647 57.232C267.746 57.9573 265.101 58.4053 262.711 58.576L261.687 58.128C257.463 52.5387 253.645 47.1413 250.231 41.936L250.103 47.632L250.423 58H242.359L242.679 48.4L242.359 25.68H250.551L250.231 40.272L259.063 28.944L261.047 25.68L269.879 25.616L258.167 40.912ZM318.513 58H309.809L305.265 44.176H304.753L300.145 58H291.505L282.353 25.68H290.417L290.929 30.16L296.177 49.616H296.689L301.937 33.36L299.825 25.68L308.145 25.68L308.849 30.928L314.289 49.616H314.801L320.881 30.608L321.777 25.68H329.393L318.513 58ZM352.291 47.632L352.611 58H344.547L344.867 48.4L344.547 25.68H352.739L352.291 47.632ZM383.565 25.232C386.637 25.232 389.581 25.7653 392.397 26.832L391.181 34L390.029 34.32C388.664 33.296 387.341 32.528 386.061 32.016C384.781 31.504 383.608 31.248 382.541 31.248C381.347 31.248 380.408 31.5467 379.725 32.144C379.043 32.6987 378.701 33.3813 378.701 34.192C378.701 35.088 379.128 35.8347 379.981 36.432C380.835 36.9867 382.179 37.648 384.013 38.416C385.933 39.2267 387.491 39.9733 388.685 40.656C389.923 41.3387 390.968 42.2987 391.821 43.536C392.717 44.7307 393.165 46.2453 393.165 48.08C393.165 49.9147 392.675 51.6427 391.693 53.264C390.755 54.8427 389.304 56.1227 387.341 57.104C385.421 58.0853 383.032 58.576 380.173 58.576C378.637 58.576 376.952 58.4053 375.117 58.064C373.325 57.7653 371.576 57.2747 369.869 56.592L370.957 49.04L371.789 48.464C373.197 49.744 374.776 50.768 376.525 51.536C378.275 52.304 379.832 52.688 381.197 52.688C382.392 52.688 383.352 52.3893 384.077 51.792C384.845 51.1947 385.229 50.448 385.229 49.552C385.229 48.6133 384.781 47.8667 383.885 47.312C383.032 46.7147 381.688 46.0533 379.853 45.328C377.933 44.5173 376.355 43.7707 375.117 43.088C373.923 42.3627 372.877 41.3813 371.981 40.144C371.128 38.9067 370.701 37.3707 370.701 35.536C370.701 33.616 371.213 31.8667 372.237 30.288C373.304 28.7093 374.797 27.472 376.717 26.576C378.68 25.68 380.963 25.232 383.565 25.232ZM432.505 51.472L433.017 51.984L432.441 58H410.297L410.617 48.4L410.297 25.68L432.761 25.68L433.209 26.32L432.697 32.272L424.377 31.952H418.361L418.233 38.48L423.993 38.544L429.561 38.352L430.009 38.928L429.497 45.008L423.417 44.816H418.105L418.041 47.632L418.169 51.728H423.801L432.505 51.472Z" fill="#00CD73"/>
</svg>
