<svg width="106" height="82" viewBox="0 0 106 82" fill="none" xmlns="http://www.w3.org/2000/svg">
<g clip-path="url(#clip0_488_234)">
<path d="M41.833 52.8336H47.6663M94.333 52.8336H100.166M79.7497 54.917V60.7503M62.2497 54.917V60.7503M53.4997 41.3336H88.4997C91.7213 41.3336 94.333 39.9453 94.333 43.167V64.5003C94.333 67.722 91.7213 70.3336 88.4997 70.3336H53.4997C50.278 70.3336 47.6663 67.722 47.6663 64.5003V43.167C47.6663 39.9453 50.278 41.3336 53.4997 41.3336Z" stroke="white" stroke-width="6" stroke-linecap="round" stroke-linejoin="round"/>
<path d="M71 47C83.7026 47 94 44.9316 94 42.3801C94 40.7182 90.2064 39.2613 83.65 38.4473L74.45 21.6199L60.65 17L64.1 23.9299L58.35 38.4473C51.7936 39.2613 48 40.7182 48 42.3801C48 44.9316 58.2974 47 71 47Z" fill="#0DFF91" stroke="#0DFF91" stroke-width="6" stroke-linecap="round" stroke-linejoin="round"/>
</g>
<g clip-path="url(#clip1_488_234)">
<path d="M27.7783 35.5183L28.8742 33.5146L29.9699 35.5183L31.9736 36.6141L29.9699 37.7101L28.8742 39.7137L27.7783 37.7101L25.7746 36.6141L27.7783 35.5183Z" fill="#00CD73"/>
<path d="M12.2275 61.5402L13.114 59.9194L14.0003 61.5402L15.6211 62.4266L14.0003 63.313L13.114 64.9336L12.2275 63.313L10.6069 62.4266L12.2275 61.5402Z" fill="#00CD73"/>
<path d="M10.9806 31.6207L11.8669 30L12.7533 31.6207L14.374 32.5071L12.7533 33.3936L11.8669 35.0142L10.9806 33.3936L9.35978 32.5071L10.9806 31.6207Z" fill="#00CD73"/>
<path d="M1.75219 41.6906L2.28277 40.7207L2.81319 41.6906L3.7832 42.2211L2.81319 42.7516L2.28277 43.7215L1.75219 42.7516L0.782336 42.2211L1.75219 41.6906Z" fill="#00CD73"/>
<path d="M1.58903 54.127L3.78337 54.7696L5.97754 54.127L5.33491 56.3211L5.97754 58.5155L3.78337 57.8728L1.58903 58.5155L2.23175 56.3211L1.58903 54.127Z" fill="#00CD73"/>
<path d="M39.902 65.4451L37.7502 63.296L13.7671 39.3128C12.9935 38.5392 11.9797 38.1564 10.9632 38.1564C9.94674 38.1564 8.93293 38.5419 8.15936 39.3128C6.61487 40.8573 6.61223 43.3654 8.15936 44.9126L31.2792 68.0324L34.2996 71.0501C35.8467 72.5972 38.3496 72.5972 39.902 71.0501C40.2874 70.6647 40.5779 70.2211 40.7653 69.7406C40.958 69.2601 41.0557 68.7558 41.0557 68.2542C41.061 67.2298 40.6755 66.216 39.902 65.4451ZM15.0607 48.0728L10.0312 43.0433C9.5164 42.5285 9.51904 41.6916 10.0312 41.1767C10.3692 40.8414 10.7626 40.7913 10.9658 40.7913C11.1691 40.7913 11.5678 40.8414 11.9005 41.1767L16.9273 46.2062L15.0607 48.0728Z" fill="white"/>
</g>
<defs>
<clipPath id="clip0_488_234">
<rect width="70" height="82" fill="white" transform="translate(36)"/>
</clipPath>
<clipPath id="clip1_488_234">
<rect width="42" height="42" fill="white" transform="matrix(-1 0 0 1 42 30)"/>
</clipPath>
</defs>
</svg>
